<?xml version="1.0" standalone="no"?>
<svg xmlns="http://www.w3.org/2000/svg" viewBox="0 0 44 71" width="44" height="71"><g fill="#5c989b" color="#5c989b" transform="translate(4.077 0) scale(0.673077) "><svg width="52.0" height="52.0" x="0.0" y="0.0" viewBox="0 0 52 52"><g><polygon points="30,2 30,30 27.0005493,30 27.0005493,50 40.0005493,50 40.0005493,30 37,30 37,2  "></polygon><polygon points="25.0005493,50 25.0005493,30 22,30 22,2 15,2 15,30 12.0005493,30 12.0005493,50  "></polygon><polygon points="45,2 45,30 42.0005493,30 42.0005493,50 50,50 50,2  "></polygon><polygon points="10.0005493,30 7,30 7,2 2,2 2,50 10.0005493,50  "></polygon></g></svg></g><line x1="5.126000000000001" y1="41" x2="38.025999999999996" y2="41" stroke="#0b4e54" stroke-linecap="round"></line><path fill="#0b4e54" fill-rule="nonzero" d="M5.02 19.37Q3.67 19.37 2.52 18.89Q1.37 18.41 0.68 17.44Q0 16.46 0 15.07L0 15.07Q0 13.37 0.94 12.61Q1.87 11.86 3.07 11.86L3.07 11.86Q2.42 12.55 2.09 13.39Q1.75 14.23 1.75 15.07L1.75 15.07Q1.75 16.51 2.70 17.47Q3.65 18.43 5.42 18.43L5.42 18.43Q6.55 18.43 7.57 18.02Q8.59 17.62 9.24 16.82Q9.89 16.03 9.89 14.93L9.89 14.93Q9.89 13.97 9.41 13.24Q8.93 12.50 8.21 11.99Q7.49 11.47 6.29 10.75L6.29 10.75Q5.06 10.03 4.33 9.49Q3.60 8.95 3.10 8.18Q2.59 7.42 2.59 6.41L2.59 6.41Q2.59 5.02 3.46 3.52Q4.32 2.02 5.89 1.01Q7.46 0 9.43 0L9.43 0Q10.75 0 11.35 0.65Q11.95 1.30 11.95 2.40L11.95 2.40Q11.95 3.60 11.38 5.09Q10.80 6.58 10.10 7.68L10.10 7.68Q9.31 7.51 9.31 6.65L9.31 6.65Q9.31 6.19 9.49 5.62Q9.67 5.04 10.01 4.18L10.01 4.18Q10.37 3.24 10.55 2.65Q10.73 2.06 10.73 1.61L10.73 1.61Q10.73 1.10 10.43 0.84Q10.13 0.58 9.38 0.58L9.38 0.58Q7.97 0.58 6.76 1.45Q5.54 2.33 4.82 3.58Q4.10 4.82 4.10 5.86L4.10 5.86Q4.10 6.62 4.52 7.22Q4.94 7.82 5.57 8.27Q6.19 8.71 7.27 9.31L7.27 9.31Q8.57 10.06 9.36 10.64Q10.15 11.23 10.72 12.13Q11.28 13.03 11.28 14.26L11.28 14.26Q11.28 15.84 10.36 16.99Q9.43 18.14 7.99 18.76Q6.55 19.37 5.02 19.37L5.02 19.37ZM15.05 18.38Q12.91 18.38 12.91 16.01L12.91 16.01Q12.91 14.98 13.28 13.45Q13.66 11.93 14.30 10.22L14.30 10.22Q13.73 10.13 13.44 10.03L13.44 10.03L13.44 9.60Q14.30 9.70 14.50 9.70L14.50 9.70Q15.55 6.96 16.76 4.96Q17.98 2.95 18.67 2.95L18.67 2.95Q18.86 2.95 19.02 3.10Q19.18 3.24 19.18 3.48L19.18 3.48Q19.18 3.79 18.88 4.39Q18.58 4.99 17.86 6.24L17.86 6.24Q17.74 6.48 17.11 7.57Q16.49 8.66 15.98 9.77L15.98 9.77L16.87 9.77Q18.86 9.77 20.30 9.62L20.30 9.62L20.30 10.06Q17.69 10.34 16.08 10.34L16.08 10.34L15.72 10.34Q14.40 13.37 14.40 15.58L14.40 15.58Q14.40 16.61 14.71 17.05Q15.02 17.50 15.74 17.50L15.74 17.50Q16.97 17.50 18.17 16.40Q19.37 15.31 20.30 13.39L20.30 13.39L20.62 13.63Q19.73 15.72 18.22 17.05Q16.70 18.38 15.05 18.38L15.05 18.38ZM20.88 24Q20.23 24 19.80 23.66Q19.37 23.33 19.37 22.73L19.37 22.73Q19.37 21.77 19.98 21.04Q20.59 20.30 21.48 19.76Q22.37 19.22 24.02 18.38L24.02 18.38Q24.74 16.54 25.37 13.99L25.37 13.99Q24.50 15.41 23.64 16.22Q22.78 17.04 21.86 17.04L21.86 17.04Q21.10 17.04 20.52 16.54Q19.94 16.03 19.94 15.10L19.94 15.10Q19.94 14.23 20.33 12.98Q20.71 11.74 21.22 10.80Q21.72 9.86 22.06 9.86L22.06 9.86Q22.27 9.86 22.69 10.04Q23.11 10.22 23.11 10.42L23.11 10.42Q22.63 11.11 22.08 12.66Q21.53 14.21 21.53 15.12L21.53 15.12Q21.53 16.08 22.39 16.08L22.39 16.08Q23.04 16.08 23.92 15.19Q24.79 14.30 25.58 13.01L25.58 13.01Q25.70 12.60 25.82 11.90L25.82 11.90Q25.92 11.45 26.22 11.06Q26.52 10.68 27.05 10.68L27.05 10.68Q27.26 10.68 27.55 10.75L27.55 10.75Q27.55 11.40 27.01 13.42Q26.47 15.43 25.68 17.47L25.68 17.47Q26.88 16.99 27.94 15.97Q28.99 14.95 29.64 13.39L29.64 13.39L29.95 13.63Q29.06 16.44 25.42 18.12L25.42 18.12Q24.36 20.71 23.20 22.36Q22.03 24 20.88 24L20.88 24ZM20.76 23.23Q21.02 23.23 21.50 22.79Q21.98 22.34 22.58 21.38Q23.18 20.42 23.78 18.96L23.78 18.96Q22.51 19.63 21.78 20.10Q21.05 20.57 20.58 21.17Q20.11 21.77 20.11 22.51L20.11 22.51Q20.11 22.75 20.28 22.99Q20.45 23.23 20.76 23.23L20.76 23.23ZM31.18 18Q30.19 18 29.72 17.33Q29.26 16.66 29.26 15.53L29.26 15.53Q29.26 13.37 30.74 9.66Q32.23 5.95 34.07 2.98Q35.90 0 36.72 0L36.72 0Q37.06 0 37.28 0.59Q37.51 1.18 37.51 1.78L37.51 1.78Q37.51 2.88 36.61 5.03Q35.71 7.18 34.25 9.38Q32.78 11.59 31.13 12.96L31.13 12.96Q30.82 14.35 30.82 15.38L30.82 15.38Q30.82 17.23 31.87 17.23L31.87 17.23Q32.76 17.23 33.68 16.10Q34.61 14.98 35.33 13.39L35.33 13.39L35.69 13.58Q33.62 18 31.18 18L31.18 18ZM31.34 12.14Q32.66 10.82 33.92 8.82Q35.18 6.82 35.98 4.98Q36.77 3.14 36.77 2.33L36.77 2.33Q36.77 1.94 36.60 1.94L36.60 1.94Q36.26 1.94 35.22 3.59Q34.18 5.23 33.07 7.61Q31.97 9.98 31.34 12.14L31.34 12.14ZM34.73 24Q33.14 24 33.14 22.78L33.14 22.78Q33.14 22.03 33.67 21.36Q34.20 20.69 34.99 20.12Q35.78 19.56 37.18 18.72L37.18 18.72Q38.18 18.14 39.02 17.57L39.02 17.57Q39.02 16.68 38.65 15.96Q38.28 15.24 37.37 14.52L37.37 14.52Q38.16 14.30 38.76 13.70Q39.36 13.10 39.67 12.37Q39.98 11.64 39.98 10.99L39.98 10.99Q39.98 10.44 39.74 10.08Q39.50 9.72 39.05 9.72L39.05 9.72Q38.30 9.72 37.69 10.27Q37.08 10.82 36.60 11.68Q36.12 12.53 35.40 14.06L35.40 14.06L35.11 13.82Q35.74 12.17 36.29 11.11Q36.84 10.06 37.60 9.43Q38.35 8.81 39.38 8.81L39.38 8.81Q40.22 8.81 40.80 9.35Q41.38 9.89 41.38 10.78L41.38 10.78Q41.38 12 40.56 13.01Q39.74 14.02 38.54 14.62L38.54 14.62Q39.79 15.58 40.22 16.78L40.22 16.78Q42.29 15.22 42.89 13.39L42.89 13.39L43.15 13.68Q42.55 15.58 40.37 17.23L40.37 17.23Q40.46 17.54 40.46 18.02L40.46 18.02Q40.46 19.44 39.64 20.84Q38.81 22.25 37.48 23.12Q36.14 24 34.73 24L34.73 24ZM34.56 23.30Q35.21 23.30 36.22 22.66Q37.22 22.01 38.04 20.83Q38.86 19.66 39 18.12L39 18.12Q37.94 18.79 37.42 19.08L37.42 19.08Q36.12 19.85 35.44 20.33Q34.75 20.81 34.28 21.36Q33.82 21.91 33.82 22.51L33.82 22.51Q33.82 22.92 34.02 23.11Q34.22 23.30 34.56 23.30L34.56 23.30Z" transform="translate(0, 47)"></path></svg>